<?xml version="1.0" encoding="UTF-8" standalone="no"?>
<!-- Created with Inkscape (http://www.inkscape.org/) -->

<svg
   version="1.1"
   id="svg62"
   width="1100"
   height="222"
   viewBox="0 0 1100 222.00003"
   sodipodi:docname="New Logo Final File.ai"
   xmlns:inkscape="http://www.inkscape.org/namespaces/inkscape"
   xmlns:sodipodi="http://sodipodi.sourceforge.net/DTD/sodipodi-0.dtd"
   xmlns="http://www.w3.org/2000/svg"
   xmlns:svg="http://www.w3.org/2000/svg">
  <defs
     id="defs66">
    <linearGradient
       x1="0"
       y1="0"
       x2="1"
       y2="0"
       gradientUnits="userSpaceOnUse"
       gradientTransform="matrix(1.4887801,-154.83315,-154.83315,-1.4887801,162.83299,566.56555)"
       spreadMethod="pad"
       id="linearGradient90">
      <stop
         style="stop-opacity:1;stop-color:#00d6a6"
         offset="0"
         id="stop86" />
      <stop
         style="stop-opacity:1;stop-color:#01ff38"
         offset="1"
         id="stop88" />
    </linearGradient>
    <linearGradient
       x1="0"
       y1="0"
       x2="1"
       y2="0"
       gradientUnits="userSpaceOnUse"
       gradientTransform="matrix(1.4887801,-154.83315,-154.83315,-1.4887801,191.27203,566.83899)"
       spreadMethod="pad"
       id="linearGradient110">
      <stop
         style="stop-opacity:1;stop-color:#00d6a6"
         offset="0"
         id="stop106" />
      <stop
         style="stop-opacity:1;stop-color:#01ff38"
         offset="1"
         id="stop108" />
    </linearGradient>
    <linearGradient
       x1="0"
       y1="0"
       x2="1"
       y2="0"
       gradientUnits="userSpaceOnUse"
       gradientTransform="matrix(1.4887801,-154.83315,-154.83315,-1.4887801,257.6069,567.47681)"
       spreadMethod="pad"
       id="linearGradient130">
      <stop
         style="stop-opacity:1;stop-color:#00d6a6"
         offset="0"
         id="stop126" />
      <stop
         style="stop-opacity:1;stop-color:#01ff38"
         offset="1"
         id="stop128" />
    </linearGradient>
    <linearGradient
       x1="0"
       y1="0"
       x2="1"
       y2="0"
       gradientUnits="userSpaceOnUse"
       gradientTransform="matrix(1.4887801,-154.83315,-154.83315,-1.4887801,166.91621,566.6048)"
       spreadMethod="pad"
       id="linearGradient150">
      <stop
         style="stop-opacity:1;stop-color:#00d6a6"
         offset="0"
         id="stop146" />
      <stop
         style="stop-opacity:1;stop-color:#01ff38"
         offset="1"
         id="stop148" />
    </linearGradient>
    <linearGradient
       x1="0"
       y1="0"
       x2="1"
       y2="0"
       gradientUnits="userSpaceOnUse"
       gradientTransform="matrix(1.4887801,-154.83315,-154.83315,-1.4887801,146.66237,566.41003)"
       spreadMethod="pad"
       id="linearGradient170">
      <stop
         style="stop-opacity:1;stop-color:#00d6a6"
         offset="0"
         id="stop166" />
      <stop
         style="stop-opacity:1;stop-color:#01ff38"
         offset="1"
         id="stop168" />
    </linearGradient>
    <linearGradient
       x1="0"
       y1="0"
       x2="1"
       y2="0"
       gradientUnits="userSpaceOnUse"
       gradientTransform="matrix(1.4887801,-154.83315,-154.83315,-1.4887801,225.12769,567.16449)"
       spreadMethod="pad"
       id="linearGradient190">
      <stop
         style="stop-opacity:1;stop-color:#00d6a6"
         offset="0"
         id="stop186" />
      <stop
         style="stop-opacity:1;stop-color:#01ff38"
         offset="1"
         id="stop188" />
    </linearGradient>
    <clipPath
       clipPathUnits="userSpaceOnUse"
       id="clipPath200">
      <path
         d="M 0,1000 H 1000 V 0 H 0 Z"
         id="path198" />
    </clipPath>
    <radialGradient
       fx="0"
       fy="0"
       cx="0"
       cy="0"
       r="1"
       gradientUnits="userSpaceOnUse"
       gradientTransform="matrix(593.1333,-2.2104347,-2.2104347,-593.1333,327.20728,432.57407)"
       spreadMethod="pad"
       id="radialGradient248">
      <stop
         style="stop-opacity:1;stop-color:#00d6a6"
         offset="0"
         id="stop244" />
      <stop
         style="stop-opacity:1;stop-color:#01ff38"
         offset="1"
         id="stop246" />
    </radialGradient>
    <radialGradient
       fx="0"
       fy="0"
       cx="0"
       cy="0"
       r="1"
       gradientUnits="userSpaceOnUse"
       gradientTransform="matrix(593.1333,-2.2104347,-2.2104347,-593.1333,327.20728,432.57407)"
       spreadMethod="pad"
       id="radialGradient268">
      <stop
         style="stop-opacity:1;stop-color:#00d6a6"
         offset="0"
         id="stop264" />
      <stop
         style="stop-opacity:1;stop-color:#01ff38"
         offset="1"
         id="stop266" />
    </radialGradient>
    <radialGradient
       fx="0"
       fy="0"
       cx="0"
       cy="0"
       r="1"
       gradientUnits="userSpaceOnUse"
       gradientTransform="matrix(593.1333,-2.2104347,-2.2104347,-593.1333,327.20728,432.57407)"
       spreadMethod="pad"
       id="radialGradient288">
      <stop
         style="stop-opacity:1;stop-color:#00d6a6"
         offset="0"
         id="stop284" />
      <stop
         style="stop-opacity:1;stop-color:#01ff38"
         offset="1"
         id="stop286" />
    </radialGradient>
    <radialGradient
       fx="0"
       fy="0"
       cx="0"
       cy="0"
       r="1"
       gradientUnits="userSpaceOnUse"
       gradientTransform="matrix(593.1333,-2.2104347,-2.2104347,-593.1333,327.20728,432.57407)"
       spreadMethod="pad"
       id="radialGradient308">
      <stop
         style="stop-opacity:1;stop-color:#00d6a6"
         offset="0"
         id="stop304" />
      <stop
         style="stop-opacity:1;stop-color:#01ff38"
         offset="1"
         id="stop306" />
    </radialGradient>
    <radialGradient
       fx="0"
       fy="0"
       cx="0"
       cy="0"
       r="1"
       gradientUnits="userSpaceOnUse"
       gradientTransform="matrix(593.1333,-2.2104347,-2.2104347,-593.1333,327.20728,432.57407)"
       spreadMethod="pad"
       id="radialGradient328">
      <stop
         style="stop-opacity:1;stop-color:#00d6a6"
         offset="0"
         id="stop324" />
      <stop
         style="stop-opacity:1;stop-color:#01ff38"
         offset="1"
         id="stop326" />
    </radialGradient>
    <radialGradient
       fx="0"
       fy="0"
       cx="0"
       cy="0"
       r="1"
       gradientUnits="userSpaceOnUse"
       gradientTransform="matrix(593.1333,-2.2104347,-2.2104347,-593.1333,327.20728,432.57407)"
       spreadMethod="pad"
       id="radialGradient348">
      <stop
         style="stop-opacity:1;stop-color:#00d6a6"
         offset="0"
         id="stop344" />
      <stop
         style="stop-opacity:1;stop-color:#01ff38"
         offset="1"
         id="stop346" />
    </radialGradient>
    <radialGradient
       fx="0"
       fy="0"
       cx="0"
       cy="0"
       r="1"
       gradientUnits="userSpaceOnUse"
       gradientTransform="matrix(593.1333,-2.2104347,-2.2104347,-593.1333,327.20728,432.57407)"
       spreadMethod="pad"
       id="radialGradient368">
      <stop
         style="stop-opacity:1;stop-color:#00d6a6"
         offset="0"
         id="stop364" />
      <stop
         style="stop-opacity:1;stop-color:#01ff38"
         offset="1"
         id="stop366" />
    </radialGradient>
    <radialGradient
       fx="0"
       fy="0"
       cx="0"
       cy="0"
       r="1"
       gradientUnits="userSpaceOnUse"
       gradientTransform="matrix(593.1333,-2.2104347,-2.2104347,-593.1333,327.20728,432.57407)"
       spreadMethod="pad"
       id="radialGradient388">
      <stop
         style="stop-opacity:1;stop-color:#00d6a6"
         offset="0"
         id="stop384" />
      <stop
         style="stop-opacity:1;stop-color:#01ff38"
         offset="1"
         id="stop386" />
    </radialGradient>
    <radialGradient
       fx="0"
       fy="0"
       cx="0"
       cy="0"
       r="1"
       gradientUnits="userSpaceOnUse"
       gradientTransform="matrix(593.1333,-2.2104347,-2.2104347,-593.1333,327.20728,432.57407)"
       spreadMethod="pad"
       id="radialGradient408">
      <stop
         style="stop-opacity:1;stop-color:#00d6a6"
         offset="0"
         id="stop404" />
      <stop
         style="stop-opacity:1;stop-color:#01ff38"
         offset="1"
         id="stop406" />
    </radialGradient>
    <radialGradient
       fx="0"
       fy="0"
       cx="0"
       cy="0"
       r="1"
       gradientUnits="userSpaceOnUse"
       gradientTransform="matrix(593.1333,-2.2104347,-2.2104347,-593.1333,327.20728,432.57407)"
       spreadMethod="pad"
       id="radialGradient428">
      <stop
         style="stop-opacity:1;stop-color:#00d6a6"
         offset="0"
         id="stop424" />
      <stop
         style="stop-opacity:1;stop-color:#01ff38"
         offset="1"
         id="stop426" />
    </radialGradient>
    <radialGradient
       fx="0"
       fy="0"
       cx="0"
       cy="0"
       r="1"
       gradientUnits="userSpaceOnUse"
       gradientTransform="matrix(593.1333,-2.2104347,-2.2104347,-593.1333,327.20728,432.57407)"
       spreadMethod="pad"
       id="radialGradient448">
      <stop
         style="stop-opacity:1;stop-color:#00d6a6"
         offset="0"
         id="stop444" />
      <stop
         style="stop-opacity:1;stop-color:#01ff38"
         offset="1"
         id="stop446" />
    </radialGradient>
    <radialGradient
       fx="0"
       fy="0"
       cx="0"
       cy="0"
       r="1"
       gradientUnits="userSpaceOnUse"
       gradientTransform="matrix(593.1333,-2.2104347,-2.2104347,-593.1333,327.20728,432.57407)"
       spreadMethod="pad"
       id="radialGradient468">
      <stop
         style="stop-opacity:1;stop-color:#00d6a6"
         offset="0"
         id="stop464" />
      <stop
         style="stop-opacity:1;stop-color:#01ff38"
         offset="1"
         id="stop466" />
    </radialGradient>
    <radialGradient
       fx="0"
       fy="0"
       cx="0"
       cy="0"
       r="1"
       gradientUnits="userSpaceOnUse"
       gradientTransform="matrix(593.1333,-2.2104347,-2.2104347,-593.1333,327.20728,432.57407)"
       spreadMethod="pad"
       id="radialGradient488">
      <stop
         style="stop-opacity:1;stop-color:#00d6a6"
         offset="0"
         id="stop484" />
      <stop
         style="stop-opacity:1;stop-color:#01ff38"
         offset="1"
         id="stop486" />
    </radialGradient>
    <radialGradient
       fx="0"
       fy="0"
       cx="0"
       cy="0"
       r="1"
       gradientUnits="userSpaceOnUse"
       gradientTransform="matrix(593.1333,-2.2104347,-2.2104347,-593.1333,327.20728,432.57407)"
       spreadMethod="pad"
       id="radialGradient508">
      <stop
         style="stop-opacity:1;stop-color:#00d6a6"
         offset="0"
         id="stop504" />
      <stop
         style="stop-opacity:1;stop-color:#01ff38"
         offset="1"
         id="stop506" />
    </radialGradient>
    <radialGradient
       fx="0"
       fy="0"
       cx="0"
       cy="0"
       r="1"
       gradientUnits="userSpaceOnUse"
       gradientTransform="matrix(593.1333,-2.2104347,-2.2104347,-593.1333,327.20728,432.57407)"
       spreadMethod="pad"
       id="radialGradient528">
      <stop
         style="stop-opacity:1;stop-color:#00d6a6"
         offset="0"
         id="stop524" />
      <stop
         style="stop-opacity:1;stop-color:#01ff38"
         offset="1"
         id="stop526" />
    </radialGradient>
    <radialGradient
       fx="0"
       fy="0"
       cx="0"
       cy="0"
       r="1"
       gradientUnits="userSpaceOnUse"
       gradientTransform="matrix(593.1333,-2.2104347,-2.2104347,-593.1333,327.20728,432.57407)"
       spreadMethod="pad"
       id="radialGradient548">
      <stop
         style="stop-opacity:1;stop-color:#00d6a6"
         offset="0"
         id="stop544" />
      <stop
         style="stop-opacity:1;stop-color:#01ff38"
         offset="1"
         id="stop546" />
    </radialGradient>
    <radialGradient
       fx="0"
       fy="0"
       cx="0"
       cy="0"
       r="1"
       gradientUnits="userSpaceOnUse"
       gradientTransform="matrix(593.1333,-2.2104347,-2.2104347,-593.1333,327.20728,432.57407)"
       spreadMethod="pad"
       id="radialGradient568">
      <stop
         style="stop-opacity:1;stop-color:#00d6a6"
         offset="0"
         id="stop564" />
      <stop
         style="stop-opacity:1;stop-color:#01ff38"
         offset="1"
         id="stop566" />
    </radialGradient>
    <radialGradient
       fx="0"
       fy="0"
       cx="0"
       cy="0"
       r="1"
       gradientUnits="userSpaceOnUse"
       gradientTransform="matrix(593.1333,-2.2104347,-2.2104347,-593.1333,327.20728,432.57407)"
       spreadMethod="pad"
       id="radialGradient588">
      <stop
         style="stop-opacity:1;stop-color:#00d6a6"
         offset="0"
         id="stop584" />
      <stop
         style="stop-opacity:1;stop-color:#01ff38"
         offset="1"
         id="stop586" />
    </radialGradient>
    <radialGradient
       fx="0"
       fy="0"
       cx="0"
       cy="0"
       r="1"
       gradientUnits="userSpaceOnUse"
       gradientTransform="matrix(593.1333,-2.2104347,-2.2104347,-593.1333,327.20728,432.57407)"
       spreadMethod="pad"
       id="radialGradient608">
      <stop
         style="stop-opacity:1;stop-color:#00d6a6"
         offset="0"
         id="stop604" />
      <stop
         style="stop-opacity:1;stop-color:#01ff38"
         offset="1"
         id="stop606" />
    </radialGradient>
    <radialGradient
       fx="0"
       fy="0"
       cx="0"
       cy="0"
       r="1"
       gradientUnits="userSpaceOnUse"
       gradientTransform="matrix(593.1333,-2.2104347,-2.2104347,-593.1333,327.20728,432.57407)"
       spreadMethod="pad"
       id="radialGradient628">
      <stop
         style="stop-opacity:1;stop-color:#00d6a6"
         offset="0"
         id="stop624" />
      <stop
         style="stop-opacity:1;stop-color:#01ff38"
         offset="1"
         id="stop626" />
    </radialGradient>
    <radialGradient
       fx="0"
       fy="0"
       cx="0"
       cy="0"
       r="1"
       gradientUnits="userSpaceOnUse"
       gradientTransform="matrix(593.1333,-2.2104347,-2.2104347,-593.1333,327.20728,432.57407)"
       spreadMethod="pad"
       id="radialGradient648">
      <stop
         style="stop-opacity:1;stop-color:#00d6a6"
         offset="0"
         id="stop644" />
      <stop
         style="stop-opacity:1;stop-color:#01ff38"
         offset="1"
         id="stop646" />
    </radialGradient>
    <radialGradient
       fx="0"
       fy="0"
       cx="0"
       cy="0"
       r="1"
       gradientUnits="userSpaceOnUse"
       gradientTransform="matrix(593.1333,-2.2104347,-2.2104347,-593.1333,327.20728,432.57407)"
       spreadMethod="pad"
       id="radialGradient668">
      <stop
         style="stop-opacity:1;stop-color:#00d6a6"
         offset="0"
         id="stop664" />
      <stop
         style="stop-opacity:1;stop-color:#01ff38"
         offset="1"
         id="stop666" />
    </radialGradient>
    <clipPath
       clipPathUnits="userSpaceOnUse"
       id="clipPath678">
      <path
         d="M 0,1000 H 1000 V 0 H 0 Z"
         id="path676" />
    </clipPath>
  </defs>
  <sodipodi:namedview
     id="namedview64"
     pagecolor="#505050"
     bordercolor="#eeeeee"
     borderopacity="1"
     inkscape:showpageshadow="0"
     inkscape:pageopacity="0"
     inkscape:pagecheckerboard="0"
     inkscape:deskcolor="#505050"
     showgrid="false" />
  <g
     id="g70"
     inkscape:groupmode="layer"
     inkscape:label="Page 1"
     transform="matrix(1.3333333,0,0,-1.3333333,0,1333.3333)">
    <path
       d="M 0,0 H 1000 V 1000 H 0 Z"
       style="display:none;fill:#020318;fill-opacity:1;fill-rule:nonzero;stroke:none"
       id="path72"
       inkscape:label="path72" />
    <g
       id="g3041"
       inkscape:label="Logo">
      <g
         id="g74"
         transform="translate(-97.952575,415.99966)">
        <g
           id="g76">
          <g
             id="g82">
            <g
               id="g84">
              <path
                 d="m 177.042,455.909 -38.345,66.419 11.353,6.555 38.346,-66.419 z"
                 style="fill:url(#linearGradient90);stroke:none"
                 id="path92" />
            </g>
          </g>
        </g>
      </g>
      <g
         id="g94"
         transform="translate(-97.952575,415.99966)">
        <g
           id="g96">
          <g
             id="g102">
            <g
               id="g104">
              <path
                 d="m 168.357,444.602 c 0,-13.29 10.805,-24.095 24.087,-24.095 v 0 c 13.289,0 24.094,10.805 24.094,24.095 v 0 c 0,4.829 -1.435,9.335 -3.891,13.109 v 0 l -11.213,-6.817 c 1.256,-1.781 1.995,-3.954 1.995,-6.292 v 0 c 0,-6.059 -4.927,-10.985 -10.985,-10.985 v 0 c -6.051,0 -10.978,4.926 -10.978,10.985 v 0 c 0,6.05 4.927,10.977 10.978,10.977 v 0 c 1.476,0 2.891,-0.297 4.174,-0.821 v 0 l -0.317,13.62 c -1.256,0.207 -2.546,0.311 -3.857,0.311 v 0 c -13.282,0 -24.087,-10.806 -24.087,-24.087"
                 style="fill:url(#linearGradient110);stroke:none"
                 id="path112" />
            </g>
          </g>
        </g>
      </g>
      <g
         id="g114"
         transform="translate(-97.952575,415.99966)">
        <g
           id="g116">
          <g
             id="g122">
            <g
               id="g124">
              <path
                 d="m 233.635,555.398 c 0,-5.119 1.609,-9.867 4.341,-13.772 v 0 l 11.247,6.838 c -1.553,1.89 -2.477,4.305 -2.477,6.934 v 0 c 0,6.059 4.925,10.985 10.977,10.985 v 0 c 6.051,0 10.977,-4.926 10.977,-10.985 v 0 c 0,-6.051 -4.926,-10.977 -10.977,-10.977 v 0 c -0.959,0 -1.891,0.124 -2.781,0.359 v 0 l 0.311,-13.344 c 0.814,-0.083 1.635,-0.125 2.47,-0.125 v 0 c 13.282,0 24.088,10.806 24.088,24.087 v 0 c 0,13.282 -10.806,24.095 -24.088,24.095 v 0 c -13.282,0 -24.088,-10.813 -24.088,-24.095"
                 style="fill:url(#linearGradient130);stroke:none"
                 id="path132" />
            </g>
          </g>
        </g>
      </g>
      <g
         id="g134"
         transform="translate(-97.952575,415.99966)">
        <g
           id="g136">
          <g
             id="g142">
            <g
               id="g144">
              <path
                 d="m 103.085,555.398 c 0,-13.281 10.805,-24.087 24.087,-24.087 v 0 c 0.696,0 1.394,0.028 2.077,0.09 v 0 l 0.303,13.283 c -0.766,-0.173 -1.566,-0.263 -2.38,-0.263 v 0 c -6.051,0 -10.977,4.926 -10.977,10.977 v 0 c 0,6.059 4.926,10.985 10.977,10.985 v 0 c 6.05,0 10.977,-4.926 10.977,-10.985 v 0 c 0,-2.697 -0.986,-5.181 -2.614,-7.093 v 0 l 11.267,-6.852 c 1.579,2.216 2.774,4.716 3.534,7.397 v 0 h 49.92 v -11.176 l 30.708,17.73 -30.708,17.729 v -11.174 h -49.912 c -2.865,10.104 -12.164,17.534 -23.172,17.534 v 0 c -13.282,0 -24.087,-10.813 -24.087,-24.095"
                 style="fill:url(#linearGradient150);stroke:none"
                 id="path152" />
            </g>
          </g>
        </g>
      </g>
      <g
         id="g154"
         transform="translate(-97.952575,415.99966)">
        <g
           id="g156">
          <g
             id="g162">
            <g
               id="g164">
              <path
                 d="m 131.555,511.554 31.106,17.019 -30.293,18.43 z"
                 style="fill:url(#linearGradient170);stroke:none"
                 id="path172" />
            </g>
          </g>
        </g>
      </g>
      <g
         id="g174"
         transform="translate(-97.952575,415.99966)">
        <g
           id="g176">
          <g
             id="g182">
            <g
               id="g184">
              <path
                 d="m 221.838,528.573 9.748,-5.334 -23.227,-40.231 -9.757,5.337 0.815,-35.449 30.293,18.43 -9.847,5.387 23.227,40.233 9.856,-5.392 -0.815,35.449 z"
                 style="fill:url(#linearGradient190);stroke:none"
                 id="path192" />
            </g>
          </g>
        </g>
      </g>
    </g>
    <g
       id="g194"
       transform="translate(-97.952575,415.99966)"
       style="display:inline"
       inkscape:label="Title">
      <g
         id="g196"
         clip-path="url(#clipPath200)">
        <g
           id="g202"
           transform="translate(342.9939,484.2673)">
          <path
             d="m 0,0 c -5.107,0 -9.793,0.825 -14.058,2.475 -4.267,1.649 -7.987,4 -11.163,7.053 -3.176,3.05 -5.636,6.599 -7.379,10.648 -1.745,4.048 -2.616,8.532 -2.616,13.452 0,4.919 0.871,9.402 2.616,13.451 1.743,4.047 4.218,7.597 7.426,10.648 3.206,3.051 6.943,5.402 11.209,7.053 4.265,1.65 9.014,2.475 14.245,2.475 5.479,0 10.446,-0.903 14.899,-2.709 4.452,-1.806 8.205,-4.453 11.256,-7.939 l -7.659,-7.473 c -2.554,2.552 -5.311,4.436 -8.268,5.651 -2.958,1.214 -6.211,1.822 -9.761,1.822 -3.488,0 -6.679,-0.561 -9.575,-1.682 -2.895,-1.12 -5.402,-2.709 -7.519,-4.764 -2.118,-2.055 -3.769,-4.484 -4.951,-7.286 -1.184,-2.802 -1.775,-5.885 -1.775,-9.247 0,-3.302 0.591,-6.369 1.775,-9.201 1.182,-2.835 2.833,-5.278 4.951,-7.333 2.117,-2.055 4.608,-3.644 7.473,-4.764 2.863,-1.121 6.039,-1.682 9.528,-1.682 3.237,0 6.367,0.514 9.387,1.542 3.02,1.027 5.9,2.755 8.641,5.184 L 25.501,8.313 C 22.138,5.573 18.215,3.502 13.732,2.101 9.248,0.7 4.671,0 0,0"
             style="fill:#ffffff;fill-opacity:1;fill-rule:nonzero;stroke:none"
             id="path204" />
        </g>
        <g
           id="g206"
           transform="translate(429.2114,485.201)">
          <path
             d="M 0,0 -16.534,23.726 H -3.55 L 13.077,0 Z m -30.639,23.166 -5.325,5.884 h 19.524 c 5.355,0 9.387,1.153 12.096,3.457 2.709,2.304 4.064,5.511 4.064,9.621 0,4.111 -1.355,7.301 -4.064,9.575 -2.709,2.273 -6.741,3.409 -12.096,3.409 h -19.524 l 5.325,5.979 z M -42.783,0 v 65.388 h 26.903 c 5.791,0 10.756,-0.92 14.899,-2.756 4.141,-1.837 7.332,-4.499 9.574,-7.987 2.242,-3.488 3.363,-7.659 3.363,-12.517 0,-4.795 -1.121,-8.906 -3.363,-12.33 C 6.351,26.372 3.16,23.726 -0.981,21.858 -5.124,19.99 -10.089,19.056 -15.88,19.056 h -20.084 l 5.325,5.417 V 0 Z"
             style="fill:#ffffff;fill-opacity:1;fill-rule:nonzero;stroke:none"
             id="path208" />
        </g>
        <g
           id="g210"
           transform="translate(460.8762,500.3332)">
          <path
             d="M 0,0 3.362,9.529 H 38.578 L 41.848,0 Z M -13.545,-15.132 15.88,50.256 H 27.837 L 57.354,-15.132 H 44.557 L 19.336,43.81 h 4.857 L -1.121,-15.132 Z"
             style="fill:#ffffff;fill-opacity:1;fill-rule:nonzero;stroke:none"
             id="path212" />
        </g>
        <g
           id="g214"
           transform="translate(540.5547,508.3671)">
          <path
             d="m 0,0 -5.324,5.978 h 19.522 c 5.355,0 9.388,1.136 12.097,3.41 2.71,2.272 4.064,5.464 4.064,9.574 0,4.111 -1.354,7.301 -4.064,9.575 -2.709,2.273 -6.742,3.409 -12.097,3.409 H -5.324 L 0,37.925 Z m -12.143,-23.166 v 65.388 h 26.902 c 5.792,0 10.757,-0.92 14.899,-2.756 4.14,-1.837 7.333,-4.499 9.575,-7.987 2.242,-3.488 3.362,-7.659 3.362,-12.517 0,-4.795 -1.12,-8.921 -3.362,-12.376 -2.242,-3.457 -5.435,-6.135 -9.575,-8.034 -4.142,-1.9 -9.107,-2.849 -14.899,-2.849 H -5.324 L 0,1.307 v -24.473 z"
             style="fill:#ffffff;fill-opacity:1;fill-rule:nonzero;stroke:none"
             id="path216" />
        </g>
        <path
           d="m 643.12,550.589 h 12.05 v -65.388 h -12.05 z m 0.934,-37.365 h -35.683 v 10.368 h 35.683 z m -34.748,-28.023 h -12.144 v 65.388 h 12.144 z"
           style="fill:#ffffff;fill-opacity:1;fill-rule:nonzero;stroke:none"
           id="path218" />
        <path
           d="m 685.902,523.406 h 32.507 v -9.995 h -32.507 z m 0.935,-27.93 h 36.896 v -10.275 h -49.04 v 65.388 h 47.733 v -10.276 h -35.589 z"
           style="fill:#ffffff;fill-opacity:1;fill-rule:nonzero;stroke:none"
           id="path220" />
        <g
           id="g222"
           transform="translate(751.2899,495.4759)">
          <path
             d="m 0,0 h 15.786 c 4.919,0 9.169,0.935 12.751,2.803 3.58,1.868 6.382,4.483 8.406,7.846 2.024,3.363 3.037,7.286 3.037,11.77 0,4.608 -1.013,8.561 -3.037,11.863 -2.024,3.3 -4.826,5.885 -8.406,7.753 -3.582,1.868 -7.832,2.802 -12.751,2.802 L 0,44.837 Z m -12.144,-10.275 v 65.388 h 28.678 c 6.973,0 13.154,-1.355 18.542,-4.064 5.386,-2.708 9.574,-6.524 12.563,-11.443 2.989,-4.92 4.484,-10.648 4.484,-17.187 C 52.123,15.88 50.628,10.15 47.639,5.232 44.65,0.311 40.462,-3.502 35.076,-6.211 29.688,-8.92 23.507,-10.275 16.534,-10.275 Z"
             style="fill:#ffffff;fill-opacity:1;fill-rule:nonzero;stroke:none"
             id="path224" />
        </g>
        <path
           d="m 818.171,550.589 h 12.144 v -65.388 h -12.144 z"
           style="fill:#ffffff;fill-opacity:1;fill-rule:nonzero;stroke:none"
           id="path226" />
        <g
           id="g228"
           transform="translate(863.1,485.201)">
          <path
             d="M 0,0 V 55.112 H -21.671 V 65.388 H 33.815 V 55.112 H 12.143 V 0 Z"
             style="fill:#ffffff;fill-opacity:1;fill-rule:nonzero;stroke:none"
             id="path230" />
        </g>
      </g>
    </g>
    <g
       id="g3009"
       inkscape:label="Subtitle"
       style="display:inline">
      <g
         id="g232"
         transform="translate(-97.952575,415.99966)">
        <g
           id="g234">
          <g
             id="g240">
            <g
               id="g242">
              <path
                 d="m 307.778,469.683 v -3.286 h 6.929 v -17.621 h 3.882 v 17.621 h 6.929 v 3.286 z"
                 style="fill:url(#radialGradient248);stroke:none"
                 id="path250" />
            </g>
          </g>
        </g>
      </g>
      <g
         id="g252"
         transform="translate(-97.952575,415.99966)">
        <g
           id="g254">
          <g
             id="g260">
            <g
               id="g262">
              <path
                 d="m 347.321,469.683 v -8.631 h -10.812 v 8.631 h -3.883 v -20.907 h 3.883 v 8.96 h 10.812 v -8.96 h 3.853 v 20.907 z"
                 style="fill:url(#radialGradient268);stroke:none"
                 id="path270" />
            </g>
          </g>
        </g>
      </g>
      <g
         id="g272"
         transform="translate(-97.952575,415.99966)">
        <g
           id="g274">
          <g
             id="g280">
            <g
               id="g282">
              <path
                 d="m 361,469.683 v -20.907 h 15.68 v 3.286 h -11.797 v 5.734 h 10.094 v 3.195 h -10.094 v 5.406 h 11.378 v 3.286 z"
                 style="fill:url(#radialGradient288);stroke:none"
                 id="path290" />
            </g>
          </g>
        </g>
      </g>
      <g
         id="g292"
         transform="translate(-97.952575,415.99966)">
        <g
           id="g294">
          <g
             id="g300">
            <g
               id="g302">
              <path
                 d="m 412.309,469.683 v -8.631 h -10.812 v 8.631 h -3.882 v -20.907 h 3.882 v 8.96 h 10.812 v -8.96 h 3.853 v 20.907 z"
                 style="fill:url(#radialGradient308);stroke:none"
                 id="path310" />
            </g>
          </g>
        </g>
      </g>
      <g
         id="g312"
         transform="translate(-97.952575,415.99966)">
        <g
           id="g314">
          <g
             id="g320">
            <g
               id="g322">
              <path
                 d="m 432.439,469.683 -9.408,-20.907 h 3.972 l 2.078,4.838 h 10.457 l 2.07,-4.838 h 4.092 l -9.438,20.907 z m 1.88,-3.873 3.915,-9.149 h -7.844 z"
                 style="fill:url(#radialGradient328);stroke:none"
                 id="path330" />
            </g>
          </g>
        </g>
      </g>
      <g
         id="g332"
         transform="translate(-97.952575,415.99966)">
        <g
           id="g334">
          <g
             id="g340">
            <g
               id="g342">
              <path
                 d="m 457.497,469.19 c -1.355,-0.528 -2.539,-1.28 -3.554,-2.255 v 0 c -1.016,-0.975 -1.803,-2.11 -2.36,-3.405 v 0 c -0.558,-1.294 -0.836,-2.727 -0.836,-4.301 v 0 c 0,-1.573 0.278,-3.006 0.836,-4.3 v 0 c 0.557,-1.295 1.339,-2.43 2.345,-3.405 v 0 c 1.005,-0.976 2.185,-1.728 3.539,-2.255 v 0 c 1.354,-0.528 2.837,-0.792 4.45,-0.792 v 0 c 1.732,0 3.305,0.299 4.719,0.897 v 0 c 1.413,0.597 2.608,1.473 3.583,2.628 v 0 l -2.508,2.359 c -0.777,-0.837 -1.633,-1.459 -2.569,-1.866 v 0 c -0.936,-0.409 -1.941,-0.613 -3.016,-0.613 v 0 c -1.096,0 -2.096,0.18 -3.002,0.538 v 0 c -0.906,0.358 -1.693,0.866 -2.36,1.523 v 0 c -0.666,0.657 -1.188,1.434 -1.566,2.33 v 0 c -0.379,0.896 -0.568,1.881 -0.568,2.956 v 0 c 0,1.076 0.189,2.061 0.568,2.957 v 0 c 0.378,0.895 0.9,1.673 1.566,2.329 v 0 c 0.667,0.657 1.454,1.165 2.36,1.524 v 0 c 0.906,0.358 1.906,0.537 3.002,0.537 v 0 c 1.075,0 2.08,-0.204 3.016,-0.612 v 0 c 0.936,-0.408 1.792,-1.02 2.569,-1.837 v 0 l 2.508,2.36 c -0.975,1.155 -2.17,2.026 -3.583,2.613 v 0 c -1.414,0.587 -2.978,0.882 -4.689,0.882 v 0 c -1.613,0 -3.096,-0.265 -4.45,-0.792"
                 style="fill:url(#radialGradient348);stroke:none"
                 id="path350" />
            </g>
          </g>
        </g>
      </g>
      <g
         id="g352"
         transform="translate(-97.952575,415.99966)">
        <g
           id="g354">
          <g
             id="g360">
            <g
               id="g362">
              <path
                 d="m 492.321,469.683 -10.304,-10.727 v 10.727 h -3.883 v -20.907 h 3.883 v 5.383 l 3.315,3.366 7.377,-8.749 h 4.57 l -9.36,11.567 8.792,9.34 z"
                 style="fill:url(#radialGradient368);stroke:none"
                 id="path370" />
            </g>
          </g>
        </g>
      </g>
      <g
         id="g372"
         transform="translate(-97.952575,415.99966)">
        <g
           id="g374">
          <g
             id="g380">
            <g
               id="g382">
              <path
                 d="m 509.643,469.683 -9.409,-20.907 h 3.973 l 2.078,4.838 h 10.456 l 2.07,-4.838 h 4.092 l -9.438,20.907 z m 1.88,-3.874 3.914,-9.148 h -7.844 z"
                 style="fill:url(#radialGradient388);stroke:none"
                 id="path390" />
            </g>
          </g>
        </g>
      </g>
      <g
         id="g392"
         transform="translate(-97.952575,415.99966)">
        <g
           id="g394">
          <g
             id="g400">
            <g
               id="g402">
              <path
                 d="m 529.743,469.683 v -20.907 h 10.423 c 2.688,0 4.714,0.498 6.078,1.493 v 0 c 1.363,0.995 2.046,2.39 2.046,4.182 v 0 c 0,1.214 -0.269,2.23 -0.807,3.046 v 0 c -0.538,0.816 -1.275,1.438 -2.21,1.868 v 0 c -0.237,0.108 -0.482,0.202 -0.734,0.283 v 0 c 0.797,0.423 1.44,1.005 1.929,1.746 v 0 c 0.517,0.787 0.776,1.737 0.776,2.853 v 0 c 0,1.652 -0.657,2.971 -1.971,3.957 v 0 c -1.314,0.986 -3.216,1.479 -5.705,1.479 v 0 z m 3.882,-3.046 h 5.496 c 1.333,0 2.369,-0.24 3.106,-0.718 v 0 c 0.736,-0.477 1.105,-1.205 1.105,-2.181 v 0 c 0,-0.954 -0.369,-1.672 -1.105,-2.15 v 0 c -0.737,-0.477 -1.773,-0.716 -3.106,-0.716 v 0 h -5.496 z m 6.302,-8.782 c 1.433,0 2.539,-0.244 3.315,-0.731 v 0 c 0.776,-0.488 1.165,-1.25 1.165,-2.285 v 0 c 0,-1.055 -0.389,-1.822 -1.165,-2.299 v 0 c -0.776,-0.478 -1.882,-0.717 -3.315,-0.717 v 0 h -6.302 v 6.032 z"
                 style="fill:url(#radialGradient408);stroke:none"
                 id="path410" />
            </g>
          </g>
        </g>
      </g>
      <g
         id="g412"
         transform="translate(-97.952575,415.99966)">
        <g
           id="g414">
          <g
             id="g420">
            <g
               id="g422">
              <path
                 d="m 556.264,469.683 v -20.907 h 14.814 v 3.286 h -10.932 v 17.621 z"
                 style="fill:url(#radialGradient428);stroke:none"
                 id="path430" />
            </g>
          </g>
        </g>
      </g>
      <g
         id="g432"
         transform="translate(-97.952575,415.99966)">
        <g
           id="g434">
          <g
             id="g440">
            <g
               id="g442">
              <path
                 d="m 578.335,469.683 v -20.907 h 15.679 v 3.286 h -11.797 v 5.734 h 10.095 v 3.195 h -10.095 v 5.406 h 11.38 v 3.286 z"
                 style="fill:url(#radialGradient448);stroke:none"
                 id="path450" />
            </g>
          </g>
        </g>
      </g>
      <g
         id="g452"
         transform="translate(-97.952575,415.99966)">
        <g
           id="g454">
          <g
             id="g460">
            <g
               id="g462">
              <path
                 d="m 620.252,469.19 c -1.364,-0.528 -2.559,-1.28 -3.584,-2.255 v 0 c -1.026,-0.975 -1.817,-2.11 -2.374,-3.405 v 0 c -0.558,-1.294 -0.837,-2.727 -0.837,-4.301 v 0 c 0,-1.573 0.279,-3.006 0.837,-4.3 v 0 c 0.557,-1.295 1.343,-2.43 2.359,-3.405 v 0 c 1.016,-0.976 2.205,-1.728 3.568,-2.255 v 0 c 1.364,-0.528 2.862,-0.792 4.496,-0.792 v 0 c 1.493,0 2.956,0.225 4.39,0.672 v 0 c 1.434,0.448 2.688,1.11 3.762,1.986 v 0 8.303 h -3.642 v -6.47 c -0.424,-0.245 -0.856,-0.442 -1.299,-0.593 v 0 c -0.966,-0.328 -1.967,-0.493 -3.002,-0.493 v 0 c -1.115,0 -2.131,0.18 -3.047,0.538 v 0 c -0.916,0.358 -1.712,0.866 -2.389,1.523 v 0 c -0.677,0.657 -1.204,1.439 -1.583,2.344 v 0 c -0.378,0.907 -0.567,1.887 -0.567,2.942 v 0 c 0,1.076 0.189,2.061 0.567,2.957 v 0 c 0.379,0.895 0.906,1.673 1.583,2.329 v 0 c 0.677,0.657 1.479,1.165 2.404,1.524 v 0 c 0.927,0.358 1.946,0.537 3.062,0.537 v 0 c 1.134,0 2.175,-0.193 3.121,-0.582 v 0 c 0.945,-0.388 1.826,-0.991 2.643,-1.807 v 0 l 2.448,2.389 c -0.975,1.115 -2.174,1.961 -3.598,2.539 v 0 c -1.424,0.578 -3.012,0.867 -4.763,0.867 v 0 c -1.673,0 -3.191,-0.265 -4.555,-0.792"
                 style="fill:url(#radialGradient468);stroke:none"
                 id="path470" />
            </g>
          </g>
        </g>
      </g>
      <g
         id="g472"
         transform="translate(-97.952575,415.99966)">
        <g
           id="g474">
          <g
             id="g480">
            <g
               id="g482">
              <path
                 d="m 642.189,469.683 v -20.907 h 3.882 v 6.092 h 4.718 c 0.279,0 0.552,0.007 0.818,0.02 v 0 l 4.26,-6.112 h 4.181 l -4.804,6.856 c 0.105,0.043 0.208,0.087 0.31,0.132 v 0 c 1.324,0.598 2.344,1.444 3.061,2.539 v 0 c 0.717,1.095 1.075,2.41 1.075,3.943 v 0 c 0,1.553 -0.358,2.887 -1.075,4.002 v 0 c -0.717,1.115 -1.737,1.966 -3.061,2.553 v 0 c -1.325,0.588 -2.912,0.882 -4.765,0.882 v 0 z m 8.421,-3.286 c 1.714,0 3.002,-0.363 3.868,-1.09 v 0 c 0.867,-0.727 1.299,-1.747 1.299,-3.061 v 0 c 0,-1.315 -0.432,-2.34 -1.299,-3.076 v 0 c -0.866,-0.738 -2.154,-1.105 -3.868,-1.105 v 0 h -4.539 v 8.332 z"
                 style="fill:url(#radialGradient488);stroke:none"
                 id="path490" />
            </g>
          </g>
        </g>
      </g>
      <g
         id="g492"
         transform="translate(-97.952575,415.99966)">
        <g
           id="g494">
          <g
             id="g500">
            <g
               id="g502">
              <path
                 d="m 674.653,469.683 -9.408,-20.907 h 3.972 l 2.078,4.838 h 10.456 l 2.07,-4.838 h 4.092 l -9.437,20.907 z m 1.88,-3.873 3.914,-9.149 h -7.844 z"
                 style="fill:url(#radialGradient508);stroke:none"
                 id="path510" />
            </g>
          </g>
        </g>
      </g>
      <g
         id="g512"
         transform="translate(-97.952575,415.99966)">
        <g
           id="g514">
          <g
             id="g520">
            <g
               id="g522">
              <path
                 d="m 694.752,469.683 v -20.907 h 3.883 v 6.033 h 4.719 c 1.851,0 3.438,0.303 4.763,0.91 v 0 c 1.324,0.608 2.345,1.465 3.061,2.569 v 0 c 0.717,1.105 1.076,2.425 1.076,3.958 v 0 c 0,1.553 -0.359,2.887 -1.076,4.002 v 0 c -0.716,1.115 -1.737,1.966 -3.061,2.553 v 0 c -1.325,0.588 -2.912,0.882 -4.763,0.882 v 0 z m 8.423,-3.286 c 1.711,0 3.001,-0.363 3.867,-1.09 v 0 c 0.866,-0.727 1.3,-1.747 1.3,-3.061 v 0 c 0,-1.315 -0.434,-2.335 -1.3,-3.061 v 0 c -0.866,-0.728 -2.156,-1.09 -3.867,-1.09 v 0 h -4.54 v 8.302 z"
                 style="fill:url(#radialGradient528);stroke:none"
                 id="path530" />
            </g>
          </g>
        </g>
      </g>
      <g
         id="g532"
         transform="translate(-97.952575,415.99966)">
        <g
           id="g534">
          <g
             id="g540">
            <g
               id="g542">
              <path
                 d="m 735.012,469.683 v -8.631 H 724.2 v 8.631 h -3.882 v -20.907 h 3.882 v 8.96 h 10.812 v -8.96 h 3.853 v 20.907 z"
                 style="fill:url(#radialGradient548);stroke:none"
                 id="path550" />
            </g>
          </g>
        </g>
      </g>
      <g
         id="g552"
         transform="translate(-97.952575,415.99966)">
        <g
           id="g554">
          <g
             id="g560">
            <g
               id="g562">
              <path
                 d="m 761.114,469.683 v -20.907 h 15.681 v 3.286 h -11.798 v 5.734 h 10.095 v 3.195 h -10.095 v 5.406 h 11.379 v 3.286 z"
                 style="fill:url(#radialGradient568);stroke:none"
                 id="path570" />
            </g>
          </g>
        </g>
      </g>
      <g
         id="g572"
         transform="translate(-97.952575,415.99966)">
        <g
           id="g574">
          <g
             id="g580">
            <g
               id="g582">
              <path
                 d="m 785.306,469.683 v -20.907 h 9.169 c 2.23,0 4.207,0.434 5.929,1.3 v 0 c 1.722,0.865 3.061,2.084 4.017,3.658 v 0 c 0.957,1.572 1.434,3.405 1.434,5.495 v 0 c 0,2.091 -0.477,3.923 -1.434,5.496 v 0 c -0.956,1.572 -2.295,2.792 -4.017,3.658 v 0 c -1.722,0.866 -3.699,1.3 -5.929,1.3 v 0 z m 3.882,-3.286 h 5.049 c 1.572,0 2.932,-0.299 4.076,-0.895 v 0 c 1.145,-0.598 2.041,-1.424 2.689,-2.48 v 0 c 0.646,-1.055 0.97,-2.319 0.97,-3.793 v 0 c 0,-1.433 -0.324,-2.688 -0.97,-3.763 v 0 c -0.648,-1.075 -1.544,-1.911 -2.689,-2.509 v 0 c -1.144,-0.597 -2.504,-0.895 -4.076,-0.895 v 0 h -5.049 z"
                 style="fill:url(#radialGradient588);stroke:none"
                 id="path590" />
            </g>
          </g>
        </g>
      </g>
      <g
         id="g592"
         transform="translate(-97.952575,415.99966)">
        <g
           id="g594">
          <g
             id="g600">
            <g
               id="g602">
              <path
                 d="m 814.158,448.776 h 3.883 v 20.907 h -3.883 z"
                 style="fill:url(#radialGradient608);stroke:none"
                 id="path610" />
            </g>
          </g>
        </g>
      </g>
      <g
         id="g612"
         transform="translate(-97.952575,415.99966)">
        <g
           id="g614">
          <g
             id="g620">
            <g
               id="g622">
              <path
                 d="m 825.177,469.683 v -3.286 h 6.929 v -17.621 h 3.882 v 17.621 h 6.929 v 3.286 z"
                 style="fill:url(#radialGradient628);stroke:none"
                 id="path630" />
            </g>
          </g>
        </g>
      </g>
      <g
         id="g632"
         transform="translate(-97.952575,415.99966)">
        <g
           id="g634">
          <g
             id="g640">
            <g
               id="g642">
              <path
                 d="m 855.013,469.175 c -1.373,-0.538 -2.567,-1.29 -3.583,-2.255 v 0 c -1.016,-0.966 -1.803,-2.102 -2.36,-3.405 v 0 c -0.558,-1.305 -0.836,-2.733 -0.836,-4.286 v 0 c 0,-1.533 0.278,-2.952 0.836,-4.256 v 0 c 0.557,-1.304 1.344,-2.444 2.36,-3.419 v 0 c 1.016,-0.976 2.214,-1.732 3.599,-2.27 v 0 c 1.383,-0.538 2.882,-0.807 4.494,-0.807 v 0 c 1.613,0 3.106,0.264 4.481,0.792 v 0 c 1.373,0.527 2.563,1.279 3.568,2.255 v 0 c 1.004,0.975 1.787,2.115 2.345,3.42 v 0 c 0.557,1.303 0.836,2.732 0.836,4.285 v 0 c 0,1.553 -0.279,2.987 -0.836,4.301 v 0 c -0.558,1.315 -1.341,2.454 -2.345,3.42 v 0 c -1.005,0.965 -2.195,1.712 -3.568,2.24 v 0 c -1.375,0.527 -2.868,0.792 -4.481,0.792 v 0 c -1.632,0 -3.136,-0.27 -4.51,-0.807 m 1.568,-16.755 c -0.905,0.358 -1.688,0.871 -2.343,1.538 v 0 c -0.658,0.667 -1.176,1.448 -1.555,2.345 v 0 c -0.378,0.895 -0.567,1.871 -0.567,2.926 v 0 c 0,1.076 0.189,2.056 0.567,2.943 v 0 c 0.379,0.885 0.897,1.661 1.555,2.329 v 0 c 0.655,0.667 1.438,1.179 2.343,1.538 v 0 c 0.906,0.358 1.887,0.537 2.942,0.537 v 0 c 1.056,0 2.026,-0.179 2.912,-0.537 v 0 c 0.886,-0.359 1.662,-0.867 2.33,-1.524 v 0 c 0.667,-0.656 1.179,-1.434 1.538,-2.329 v 0 c 0.358,-0.896 0.536,-1.881 0.536,-2.957 v 0 c 0,-1.075 -0.182,-2.06 -0.55,-2.956 v 0 c -0.37,-0.896 -0.882,-1.673 -1.54,-2.33 v 0 c -0.655,-0.657 -1.428,-1.165 -2.314,-1.523 v 0 c -0.886,-0.358 -1.856,-0.538 -2.912,-0.538 v 0 c -1.055,0 -2.036,0.18 -2.942,0.538"
                 style="fill:url(#radialGradient648);stroke:none"
                 id="path650" />
            </g>
          </g>
        </g>
      </g>
      <g
         id="g652"
         transform="translate(-97.952575,415.99966)">
        <g
           id="g654">
          <g
             id="g660">
            <g
               id="g662">
              <path
                 d="m 879.056,469.683 v -20.907 h 3.883 v 6.092 h 4.717 c 0.279,0 0.552,0.007 0.819,0.02 v 0 l 4.259,-6.112 h 4.182 l -4.805,6.856 c 0.105,0.042 0.208,0.087 0.31,0.132 v 0 c 1.325,0.598 2.345,1.444 3.062,2.539 v 0 c 0.716,1.095 1.075,2.41 1.075,3.943 v 0 c 0,1.553 -0.359,2.887 -1.075,4.002 v 0 c -0.717,1.115 -1.737,1.966 -3.062,2.553 v 0 c -1.325,0.588 -2.912,0.882 -4.765,0.882 v 0 z m 8.422,-3.286 c 1.712,0 3.003,-0.363 3.867,-1.09 v 0 c 0.866,-0.727 1.3,-1.747 1.3,-3.061 v 0 c 0,-1.315 -0.434,-2.34 -1.3,-3.076 v 0 c -0.864,-0.738 -2.155,-1.105 -3.867,-1.105 v 0 h -4.539 v 8.332 z"
                 style="fill:url(#radialGradient668);stroke:none"
                 id="path670" />
            </g>
          </g>
        </g>
      </g>
      <g
         id="g672"
         transform="translate(-97.952575,415.99966)"
         style="display:inline">
        <g
           id="g674"
           clip-path="url(#clipPath678)">
          <g
             id="g680"
             transform="translate(366.9069,509.1523)">
            <path
               d="M 0,0 H -24.38 V 11.396 H 1.588 Z"
               style="fill:#ffffff;fill-opacity:1;fill-rule:nonzero;stroke:none"
               id="path682" />
          </g>
          <g
             id="g684"
             transform="translate(357.0989,494.1687)">
            <path
               d="M 0,0 V 26.38 H 11.396 V -1.588 Z"
               style="fill:#ffffff;fill-opacity:1;fill-rule:nonzero;stroke:none"
               id="path686" />
          </g>
        </g>
      </g>
    </g>
  </g>
</svg>
